<svg xmlns="http://www.w3.org/2000/svg" viewBox="0 0 340.157 340.157">
  <defs>
    <clipPath id="clip-main">
      <path d="M 86 65 L 253 65 L 253 226 L 86 226 Z"/>
    </clipPath>
  </defs>
  <g clip-path="url(#clip-main)" fill="#1A1612">
    <path d="M 165.433594 70.042969 C 163.273438 71.515625 160.890625 72.507812 158.355469 73.09375 C 152.3125 74.484375 146.789062 77.015625 141.707031 80.542969 C 136.5625 84.113281 132.253906 88.453125 129.402344 94.109375 C 129.375 94.160156 129.273438 94.175781 129.140625 94.238281 C 128.992188 94.058594 128.824219 93.875 128.671875 93.675781 C 126.484375 90.789062 123.589844 88.933594 120.171875 87.839844 C 117.226562 86.898438 114.195312 86.578125 111.121094 86.613281 C 109.910156 86.625 108.699219 86.769531 107.425781 86.859375 C 107.523438 87.027344 107.535156 87.082031 107.566406 87.09375 C 108.003906 87.253906 108.449219 87.410156 108.890625 87.574219 C 115.976562 90.21875 120.371094 95.007812 121.007812 102.789062 C 121.101562 103.9375 121.105469 103.9375 120.046875 104.421875 C 116.066406 106.230469 112.308594 108.40625 108.824219 111.054688 C 102.683594 115.71875 98.378906 121.644531 96.335938 129.132812 C 95.789062 131.128906 95.300781 133.140625 94.730469 135.128906 C 93.902344 138.015625 92.417969 140.496094 90.09375 142.453125 C 89.039062 143.339844 88.03125 144.28125 86.996094 145.203125 C 88.035156 146.136719 89.046875 147.074219 90.09375 147.972656 C 92.21875 149.792969 93.644531 152.070312 94.457031 154.730469 C 94.945312 156.335938 95.394531 157.960938 95.777344 159.59375 C 97.65625 167.601562 101.917969 174.046875 108.421875 179.042969 C 111.894531 181.710938 115.636719 183.917969 119.609375 185.742188 C 120.074219 185.957031 120.535156 186.175781 121.070312 186.429688 C 121.132812 190.625 120.203125 194.476562 117.558594 197.8125 C 114.9375 201.125 111.402344 203.039062 107.445312 204.363281 C 107.882812 204.519531 108.296875 204.621094 108.714844 204.613281 C 111.167969 204.554688 113.640625 204.640625 116.070312 204.367188 C 121.191406 203.789062 125.59375 201.742188 128.785156 197.515625 C 128.859375 197.417969 128.96875 197.347656 129.097656 197.230469 C 129.261719 197.507812 129.429688 197.757812 129.566406 198.019531 C 131.050781 200.828125 132.9375 203.34375 135.191406 205.570312 C 141.503906 211.800781 148.96875 215.984375 157.585938 218.109375 C 162.449219 219.308594 166.773438 221.34375 169.464844 225.855469 C 169.527344 225.832031 169.582031 225.832031 169.605469 225.800781 C 169.714844 225.671875 169.828125 225.546875 169.914062 225.402344 C 170.871094 223.769531 172.1875 222.480469 173.726562 221.402344 C 176.015625 219.796875 178.574219 218.769531 181.273438 218.148438 C 187.765625 216.65625 193.601562 213.789062 198.925781 209.847656 C 203.453125 206.496094 207.265625 202.488281 209.808594 197.386719 C 209.871094 197.257812 210.011719 197.164062 210.15625 197.007812 C 212.289062 200.082031 215.136719 202.09375 218.558594 203.316406 C 222.710938 204.796875 227.011719 204.808594 231.335938 204.566406 C 231.503906 204.558594 231.664062 204.421875 231.902344 204.304688 C 222.585938 200.808594 217.824219 194.851562 218.34375 187.351562 C 218.796875 187.140625 219.183594 186.957031 219.574219 186.777344 C 223.035156 185.191406 226.320312 183.308594 229.414062 181.085938 C 235.847656 176.464844 240.554688 170.574219 242.777344 162.871094 C 243.375 160.800781 243.875 158.703125 244.449219 156.625 C 245.296875 153.558594 246.800781 150.898438 249.28125 148.832031 C 250.300781 147.980469 251.273438 147.074219 252.320312 146.144531 C 251.230469 145.167969 250.148438 144.1875 249.058594 143.21875 C 247.273438 141.644531 245.9375 139.75 245.1875 137.496094 C 244.605469 135.738281 244.070312 133.960938 243.65625 132.15625 C 241.78125 124.011719 237.546875 117.410156 230.921875 112.320312 C 227.347656 109.574219 223.488281 107.3125 219.390625 105.453125 C 219.007812 105.28125 218.636719 105.089844 218.273438 104.914062 C 218.136719 99.667969 219.675781 95.195312 223.496094 91.648438 C 225.710938 89.589844 228.332031 88.210938 231.210938 87.308594 C 231.449219 87.234375 231.667969 87.089844 232 86.925781 C 228.644531 86.410156 225.464844 86.53125 222.300781 87.074219 C 217.640625 87.875 213.617188 89.824219 210.652344 93.648438 C 210.535156 93.800781 210.359375 93.914062 210.1875 94.066406 C 209.667969 93.167969 209.214844 92.335938 208.707031 91.539062 C 208.199219 90.734375 207.683594 89.933594 207.09375 89.195312 C 200.617188 81.082031 192.1875 76.015625 182.234375 73.367188 C 180.023438 72.777344 177.839844 72.148438 175.816406 71.054688 C 173.621094 69.867188 171.703125 68.367188 170.347656 66.226562 C 170.171875 65.949219 169.976562 65.679688 169.738281 65.324219 C 168.6875 67.347656 167.207031 68.835938 165.433594 70.042969 Z"/>
  </g>
</svg>
