<svg xmlns="http://www.w3.org/2000/svg" xmlns:xlink="http://www.w3.org/1999/xlink" width="3170" height="1040" viewBox="0 0 3170 1040"><title>华夏和 · huaxiahe-materials-3170x1040</title><defs><linearGradient id="bgGrad2" x1="85.35533905932738%" y1="14.644660940672622%" x2="14.64466094067263%" y2="85.35533905932738%"><stop offset="0" stop-color="#F3EFE6"/><stop offset="1" stop-color="#E4DDD0"/></linearGradient></defs><rect width="3170" height="1040" fill="url(#bgGrad2)"/><svg x="160" y="100" width="71.994" height="90.0" viewBox="83.211 61.485 173.736 217.187" preserveAspectRatio="xMidYMid meet"><defs><linearGradient id="hxhP2Grad0" x1="87.2107" y1="0" x2="252.9468" y2="0" gradientUnits="userSpaceOnUse">
<stop offset="0.0" stop-color="#E5E1DE"/>
<stop offset="0.25" stop-color="#D7CEC1"/>
<stop offset="0.5" stop-color="#C8BAA3"/>
<stop offset="0.75" stop-color="#B9A787"/>
<stop offset="1.0" stop-color="#AB946C"/>
</linearGradient><linearGradient id="hxhP2Grad1" x1="142.5290" y1="0" x2="197.8705" y2="0" gradientUnits="userSpaceOnUse">
<stop offset="0.0" stop-color="#E5E1DE"/>
<stop offset="0.25" stop-color="#D7CEC1"/>
<stop offset="0.5" stop-color="#C8BAA3"/>
<stop offset="0.75" stop-color="#B9A787"/>
<stop offset="1.0" stop-color="#AB946C"/>
</linearGradient><linearGradient id="hxhP2Grad2" x1="139.6626" y1="0" x2="200.6936" y2="0" gradientUnits="userSpaceOnUse">
<stop offset="0.0" stop-color="#E5E1DE"/>
<stop offset="0.25" stop-color="#D7CEC1"/>
<stop offset="0.5" stop-color="#C8BAA3"/>
<stop offset="0.75" stop-color="#B9A787"/>
<stop offset="1.0" stop-color="#AB946C"/>
</linearGradient><linearGradient id="hxhP2Grad3" x1="163.2854" y1="0" x2="168.9879" y2="0" gradientUnits="userSpaceOnUse">
<stop offset="0.0" stop-color="#E5E1DE"/>
<stop offset="0.25" stop-color="#D7CEC1"/>
<stop offset="0.5" stop-color="#C8BAA3"/>
<stop offset="0.75" stop-color="#B9A787"/>
<stop offset="1.0" stop-color="#AB946C"/>
</linearGradient><linearGradient id="hxhP2Grad4" x1="171.5403" y1="0" x2="177.1963" y2="0" gradientUnits="userSpaceOnUse">
<stop offset="0.0" stop-color="#E5E1DE"/>
<stop offset="0.25" stop-color="#D7CEC1"/>
<stop offset="0.5" stop-color="#C8BAA3"/>
<stop offset="0.75" stop-color="#B9A787"/>
<stop offset="1.0" stop-color="#AB946C"/>
</linearGradient></defs><path fill="url(#hxhP2Grad0)" d="M165.844,70.216 C163.677,71.691 161.291,72.687 158.747,73.273 C152.691,74.669 147.154,77.208 142.060,80.741 C136.899,84.320 132.583,88.671 129.723,94.341 C129.696,94.395 129.592,94.410 129.461,94.473 C129.311,94.293 129.143,94.106 128.991,93.906 C126.797,91.014 123.895,89.155 120.471,88.059 C117.519,87.114 114.477,86.794 111.396,86.826 C110.182,86.838 108.968,86.985 107.692,87.075 C107.790,87.243 107.802,87.297 107.832,87.308 C108.273,87.472 108.718,87.626 109.159,87.791 C116.264,90.442 120.668,95.244 121.307,103.045 C121.402,104.195 121.406,104.196 120.343,104.680 C116.355,106.494 112.587,108.676 109.094,111.331 C102.939,116.007 98.621,121.946 96.573,129.453 C96.026,131.453 95.536,133.469 94.964,135.463 C94.135,138.356 92.646,140.845 90.317,142.805 C89.260,143.694 88.250,144.638 87.211,145.564 C88.253,146.498 89.267,147.439 90.317,148.339 C92.449,150.166 93.875,152.449 94.690,155.112 C95.182,156.723 95.629,158.351 96.013,159.990 C97.897,168.018 102.172,174.477 108.692,179.487 C112.171,182.160 115.922,184.373 119.904,186.202 C120.371,186.416 120.834,186.638 121.370,186.890 C121.433,191.097 120.500,194.957 117.851,198.302 C115.222,201.623 111.680,203.541 107.711,204.870 C108.149,205.028 108.567,205.130 108.983,205.120 C111.443,205.063 113.922,205.147 116.359,204.873 C121.491,204.294 125.906,202.241 129.105,198.005 C129.180,197.907 129.290,197.836 129.419,197.720 C129.584,197.997 129.749,198.248 129.888,198.511 C131.377,201.327 133.268,203.847 135.528,206.080 C141.854,212.327 149.339,216.521 157.978,218.651 C162.850,219.852 167.186,221.892 169.883,226.417 C169.947,226.393 170.002,226.391 170.026,226.362 C170.134,226.232 170.249,226.104 170.334,225.959 C171.295,224.324 172.616,223.033 174.156,221.952 C176.453,220.341 179.015,219.312 181.724,218.689 C188.230,217.195 194.082,214.320 199.418,210.369 C203.958,207.007 207.778,202.991 210.328,197.877 C210.393,197.746 210.532,197.652 210.676,197.496 C212.816,200.577 215.668,202.594 219.099,203.819 C223.262,205.305 227.576,205.315 231.910,205.075 C232.078,205.065 232.238,204.927 232.477,204.812 C223.136,201.307 218.363,195.334 218.886,187.816 C219.338,187.604 219.728,187.420 220.120,187.240 C223.588,185.650 226.882,183.762 229.982,181.536 C236.434,176.903 241.149,170.996 243.380,163.275 C243.979,161.200 244.481,159.098 245.056,157.015 C245.904,153.940 247.414,151.272 249.898,149.201 C250.922,148.348 251.897,147.437 252.947,146.506 C251.853,145.526 250.770,144.543 249.674,143.574 C247.885,141.996 246.548,140.097 245.796,137.836 C245.210,136.076 244.675,134.291 244.259,132.485 C242.381,124.321 238.136,117.700 231.494,112.599 C227.911,109.847 224.044,107.580 219.934,105.715 C219.552,105.541 219.179,105.350 218.814,105.173 C218.678,99.914 220.221,95.433 224.049,91.875 C226.270,89.810 228.897,88.431 231.782,87.526 C232.024,87.450 232.243,87.305 232.574,87.143 C229.211,86.626 226.024,86.745 222.853,87.290 C218.179,88.094 214.145,90.046 211.175,93.880 C211.056,94.034 210.882,94.146 210.710,94.299 C210.186,93.399 209.732,92.564 209.226,91.764 C208.716,90.961 208.198,90.157 207.607,89.416 C201.115,81.282 192.664,76.203 182.687,73.549 C180.469,72.959 178.280,72.327 176.252,71.231 C174.050,70.042 172.128,68.538 170.771,66.391 C170.593,66.111 170.399,65.841 170.158,65.485 C169.105,67.515 167.621,69.005 165.844,70.216 Z M132.602,142.065 C132.602,141.500 132.602,140.992 132.602,140.484 C132.602,128.715 132.630,116.944 132.570,105.176 C132.561,103.389 132.910,101.767 133.621,100.168 C137.596,91.243 144.221,85.048 153.143,81.238 C154.086,80.835 155.110,80.585 156.118,80.373 C159.526,79.654 162.753,78.443 165.760,76.716 C167.323,75.818 168.735,74.661 170.345,73.528 C170.204,73.501 170.312,73.489 170.361,73.536 C173.314,76.499 177.025,78.119 180.890,79.443 C182.028,79.834 183.206,80.125 184.384,80.376 C188.406,81.237 191.857,83.238 195.105,85.660 C200.010,89.320 203.920,93.798 206.467,99.412 C207.244,101.123 207.685,102.822 207.635,104.766 C207.496,110.128 207.586,115.495 207.586,120.861 C207.586,127.438 207.586,134.016 207.586,140.593 C207.586,141.104 207.586,141.615 207.586,142.213 L190.940,142.213 C191.038,141.955 191.110,141.683 191.236,141.437 C194.052,135.925 193.172,129.407 188.990,124.781 C186.905,122.473 184.446,120.624 181.693,119.236 C178.227,117.487 174.662,115.935 171.147,114.284 C168.725,113.146 166.267,112.074 163.913,110.808 C160.994,109.238 159.153,106.720 158.234,103.546 C156.785,98.542 158.928,93.944 163.733,91.976 C167.394,90.477 171.201,90.205 175.039,91.218 C177.723,91.927 179.858,93.531 181.551,95.699 C182.534,96.959 183.389,98.318 184.350,99.597 C185.179,100.700 186.012,101.814 186.962,102.810 C187.934,103.829 189.157,104.464 190.764,104.478 C190.625,104.158 190.539,103.901 190.408,103.669 C189.635,102.315 189.280,100.872 189.446,99.312 C189.903,95.018 187.924,92.099 184.246,90.159 C182.042,88.997 179.654,88.401 177.205,88.084 C174.071,87.679 170.925,87.472 167.764,87.798 C161.263,88.467 155.570,90.762 151.633,96.229 C148.350,100.788 147.578,105.783 149.765,111.085 C150.705,113.362 152.387,115.026 154.301,116.484 C156.788,118.380 159.525,119.864 162.307,121.263 C165.973,123.106 169.673,124.882 173.326,126.750 C176.101,128.168 178.784,129.751 181.106,131.867 C182.566,133.197 183.808,134.701 184.270,136.671 C184.877,139.268 184.278,141.641 182.723,143.787 C181.613,145.320 180.174,146.502 178.583,147.480 C176.928,148.497 175.208,149.405 173.514,150.358 C172.498,150.930 171.483,151.507 170.458,152.062 C169.071,152.813 168.183,154.044 167.388,155.330 C166.626,156.563 166.810,157.816 167.650,158.970 C167.870,159.270 168.143,159.531 168.379,159.795 C166.549,160.037 164.744,160.162 162.990,160.529 C157.864,161.601 153.582,164.122 150.321,168.270 C149.922,168.776 149.569,169.332 149.270,169.904 C148.543,171.291 149.076,172.180 150.631,172.182 C156.170,172.191 161.708,172.186 167.247,172.186 C174.560,172.186 181.872,172.186 189.185,172.186 C189.531,172.186 189.879,172.205 190.223,172.178 C191.111,172.110 191.575,171.588 191.398,170.701 C191.291,170.169 191.022,169.640 190.719,169.180 C188.458,165.747 185.304,163.398 181.562,161.807 C178.587,160.540 175.463,159.947 172.052,159.948 C173.190,158.727 174.020,157.511 173.412,155.855 C172.807,154.206 171.464,153.673 169.738,153.501 C170.451,152.732 171.244,152.407 172.059,152.162 C173.834,151.629 175.624,151.145 177.404,150.629 C180.236,149.807 182.946,148.703 185.495,147.206 C185.918,146.958 186.457,146.790 186.943,146.788 C193.519,146.761 200.096,146.769 206.673,146.774 C206.923,146.774 207.172,146.819 207.586,146.859 C207.586,147.415 207.586,147.921 207.586,148.426 C207.586,161.105 207.544,173.783 207.627,186.461 C207.642,188.526 207.227,190.386 206.396,192.210 C202.450,200.876 195.951,206.923 187.293,210.710 C186.162,211.205 184.895,211.385 183.693,211.716 C178.700,213.093 173.880,214.814 170.078,218.561 C170.051,218.587 169.997,218.586 169.889,218.616 C166.451,215.170 162.053,213.442 157.478,212.066 C156.326,211.720 155.120,211.546 153.968,211.197 C150.097,210.022 146.786,207.842 143.672,205.330 C138.899,201.480 135.259,196.783 133.011,191.042 C132.644,190.103 132.361,189.183 132.566,188.149 C132.665,187.647 132.601,187.114 132.601,186.595 C132.602,173.959 132.602,161.324 132.602,148.689 L132.602,146.998 C133.123,146.976 133.578,146.941 134.033,146.941 C135.887,146.940 137.741,146.952 139.596,146.964 C143.714,146.989 147.832,147.014 151.947,146.902 C157.332,146.754 162.582,145.697 167.505,143.407 C168.785,142.812 170.023,142.042 171.121,141.155 C174.182,138.684 174.982,134.723 173.185,131.217 C171.518,127.961 168.566,126.369 165.205,125.365 C165.557,125.570 165.907,125.776 166.260,125.979 C167.842,126.888 169.325,127.920 170.575,129.269 C173.876,132.832 172.377,136.918 169.413,138.866 C167.349,140.223 165.021,140.856 162.632,141.282 C159.521,141.836 156.379,142.098 153.218,142.107 C146.727,142.122 140.236,142.128 133.746,142.134 C133.743,142.134 133.739,142.134 133.735,142.134 C133.402,142.134 133.068,142.095 132.602,142.065 Z M120.990,180.145 C115.529,177.550 110.620,174.254 107.080,169.212 C104.917,166.130 103.529,162.700 102.489,159.109 C102.129,157.865 101.796,156.608 101.354,155.391 C99.980,151.605 98.033,148.181 94.817,145.563 C98.801,142.330 100.847,138.008 102.247,133.284 C102.836,131.298 103.446,129.311 104.204,127.386 C106.699,121.042 111.203,116.455 117.004,113.051 C118.337,112.268 119.719,111.568 121.305,110.706 L121.305,180.104 C121.183,180.121 121.097,180.154 121.036,180.154 C121.018,180.154 121.003,180.151 120.990,180.145 Z M218.856,111.970 C218.969,111.946 219.068,111.890 219.128,111.918 C223.485,113.925 227.467,116.479 230.772,120.000 C234.135,123.583 236.168,127.884 237.548,132.546 C238.087,134.366 238.633,136.193 239.322,137.958 C240.580,141.183 242.395,144.052 245.103,146.286 C245.161,146.334 245.177,146.433 245.240,146.568 C241.096,149.972 239.042,154.611 237.671,159.655 C236.575,163.686 235.008,167.507 232.490,170.889 C229.450,174.970 225.437,177.849 221.009,180.222 C220.515,180.487 220.010,180.735 219.507,180.983 C219.356,181.057 219.191,181.105 218.856,181.234 L218.856,111.970 Z M161.188,163.739 C160.967,162.723 161.674,162.114 162.457,161.701 C163.094,161.364 163.799,161.088 164.506,160.961 C168.449,160.247 172.408,160.225 176.332,161.055 C177.174,161.233 178.033,161.727 178.689,162.300 C179.752,163.227 179.409,164.461 178.043,164.847 C177.392,165.030 176.686,165.023 176.112,165.090 C175.009,164.898 174.011,164.807 173.061,164.544 C171.134,164.011 169.257,164.085 167.315,164.535 C165.948,164.851 164.508,164.904 163.097,164.955 C163.057,164.956 163.017,164.957 162.977,164.957 C162.176,164.957 161.390,164.659 161.188,163.739 Z M158.682,165.704 C157.890,165.413 157.440,164.840 157.394,163.826 C157.947,163.530 158.531,163.217 159.141,162.889 C159.417,164.276 159.815,164.604 162.288,165.680 C161.639,165.870 160.985,165.991 160.331,165.991 C159.781,165.991 159.230,165.906 158.682,165.704 Z M177.876,165.768 C179.221,164.861 181.042,164.881 181.266,162.893 C181.708,163.119 182.060,163.278 182.391,163.473 C183.101,163.890 183.219,164.268 182.717,164.911 C182.444,165.262 182.029,165.571 181.613,165.728 C181.085,165.926 180.551,166.001 179.994,166.001 C179.332,166.001 178.636,165.896 177.876,165.768 Z M181.655,168.207 C182.723,168.020 183.539,167.370 183.860,166.247 C184.001,165.756 184.164,165.272 184.323,164.769 C185.802,165.735 186.060,166.736 185.306,168.423 C186.323,168.560 186.346,168.552 187.454,167.607 C187.629,167.909 187.844,168.179 187.954,168.486 C188.189,169.146 188.046,169.471 187.346,169.623 C186.507,169.805 185.644,169.934 184.787,169.962 C182.502,170.039 180.213,170.101 177.928,170.064 C176.892,170.047 175.909,169.668 175.033,169.054 C174.255,168.510 173.452,168.003 172.653,167.489 C171.041,166.453 169.423,166.403 167.801,167.472 C167.045,167.971 166.269,168.442 165.527,168.962 C164.428,169.732 163.204,170.130 161.883,170.104 C159.252,170.052 156.622,169.930 153.992,169.836 C153.949,169.835 153.905,169.831 153.863,169.825 C152.169,169.591 151.977,169.129 152.995,167.595 C153.613,168.052 154.121,168.839 155.076,168.469 C154.351,166.658 154.651,165.597 156.132,164.789 C156.259,165.239 156.384,165.685 156.512,166.128 C156.894,167.453 157.843,168.130 159.148,168.274 C161.272,168.507 163.277,168.183 165.008,166.792 C165.832,166.129 166.790,165.732 167.833,165.585 C170.666,165.187 173.389,165.194 175.840,167.091 C177.040,168.019 178.424,168.373 179.861,168.373 C180.453,168.373 181.055,168.313 181.655,168.207 Z"/><path fill="url(#hxhP2Grad1)" d="M145.568,179.953 C145.184,180.301 144.803,180.656 144.456,181.041 C142.166,183.584 141.912,186.455 143.721,189.372 C144.623,190.826 145.831,191.988 147.198,193.006 C148.491,193.970 149.592,195.113 150.431,196.510 C151.378,198.084 151.395,200.917 149.871,202.148 C149.831,202.180 149.866,202.303 149.866,202.388 C150.900,203.250 151.801,203.355 152.928,202.744 C154.922,201.663 156.103,199.380 155.831,197.086 C155.753,196.421 155.609,195.763 155.496,195.099 C157.135,195.099 158.697,194.972 160.228,195.137 C161.672,195.293 163.121,195.644 164.490,196.131 C165.254,196.402 166.078,196.989 166.486,197.669 C167.351,199.112 167.892,200.731 167.951,202.454 C168.014,204.307 168.341,204.643 170.171,204.647 C170.387,204.647 170.604,204.651 170.820,204.636 C171.959,204.554 172.420,204.153 172.423,203.037 C172.426,201.488 172.904,200.070 173.411,198.640 C173.865,197.363 174.722,196.533 175.964,196.066 C178.854,194.979 181.856,194.919 184.985,195.019 C184.866,195.538 184.771,195.949 184.679,196.360 C184.109,198.929 185.291,201.590 187.522,202.764 C188.672,203.370 189.600,203.236 190.469,202.408 C190.083,201.546 189.668,200.841 189.448,200.078 C189.068,198.762 189.391,197.508 190.083,196.350 C190.940,194.914 192.133,193.796 193.466,192.810 C194.871,191.769 196.062,190.523 196.920,188.988 C198.405,186.331 198.149,183.585 196.156,181.295 C195.565,180.615 194.859,180.029 194.179,179.430 C193.369,178.717 192.440,178.462 191.326,178.466 C177.397,178.501 163.468,178.517 149.540,178.449 C149.528,178.449 149.516,178.449 149.505,178.449 C147.908,178.449 146.685,178.941 145.568,179.953 Z"/><path fill="url(#hxhP2Grad2)" d="M193.934,164.548 C193.658,165.586 193.515,166.666 193.390,167.736 C193.209,169.280 193.153,170.841 192.942,172.380 C192.766,173.661 192.610,173.742 191.358,173.742 C177.259,173.745 163.158,173.745 149.059,173.742 C147.825,173.742 147.576,173.532 147.430,172.266 C147.302,171.150 147.272,170.023 147.144,168.907 C146.985,167.534 146.850,166.152 146.561,164.805 C146.161,162.944 144.921,161.907 143.081,161.928 C142.197,161.938 141.301,162.221 140.442,162.483 C140.135,162.576 139.919,162.974 139.663,163.233 C139.908,163.442 140.124,163.705 140.401,163.851 C142.526,164.967 143.839,166.571 143.671,169.108 C143.631,169.712 143.588,170.317 143.585,170.922 C143.582,171.655 143.585,172.392 143.652,173.121 C143.762,174.339 144.429,175.209 145.490,175.776 C146.534,176.333 147.636,176.613 148.840,176.610 C155.976,176.589 163.112,176.600 170.249,176.600 C177.385,176.600 184.522,176.591 191.659,176.608 C192.909,176.611 194.051,176.297 195.106,175.661 C196.133,175.043 196.759,174.146 196.768,172.907 C196.777,171.654 196.814,170.397 196.736,169.148 C196.599,166.917 197.564,165.323 199.418,164.193 C199.672,164.037 199.976,163.956 200.220,163.788 C200.417,163.653 200.717,163.412 200.692,163.265 C200.650,163.016 200.434,162.679 200.212,162.600 C199.445,162.328 198.658,162.070 197.857,161.955 C197.651,161.926 197.449,161.911 197.253,161.911 C195.640,161.911 194.374,162.887 193.934,164.548 Z"/><path fill="url(#hxhP2Grad3)" d="M164.199,162.101 C163.762,162.233 163.165,162.447 163.307,163.013 C163.382,163.309 163.916,163.522 164.279,163.702 C164.497,163.810 164.795,163.851 165.035,163.805 C166.046,163.608 167.055,163.396 168.047,163.125 C168.387,163.032 168.676,162.751 168.988,162.556 C168.958,162.431 168.927,162.307 168.898,162.183 C168.146,161.844 167.383,161.703 166.615,161.703 C165.813,161.703 165.006,161.857 164.199,162.101 Z"/><path fill="url(#hxhP2Grad4)" d="M171.540,162.353 C172.522,163.869 175.982,164.257 177.197,162.987 C176.606,162.154 175.214,161.689 173.884,161.689 C172.987,161.689 172.117,161.900 171.540,162.353 Z"/><g fill="#614A26"><path d="M133.753,241.062 L134.992,241.062 L134.992,245.244 L135.068,249.503 L135.999,248.729 C136.721,248.213 137.366,247.671 137.935,247.102 C138.605,246.483 139.174,245.863 139.639,245.244 L140.336,244.392 C140.336,244.342 140.799,244.444 141.729,244.702 L143.046,245.089 L142.814,245.476 C142.659,245.736 142.400,246.123 142.038,246.638 C141.678,247.155 141.161,247.722 140.490,248.341 C139.870,248.910 139.225,249.426 138.553,249.890 C137.935,250.304 137.316,250.665 136.695,250.975 C136.126,251.234 135.689,251.414 135.379,251.517 C135.120,251.621 134.992,251.723 134.992,251.827 C134.939,251.930 134.939,252.783 134.992,254.382 L134.992,256.782 L138.710,256.782 L142.348,256.782 L142.271,256.395 L142.271,253.995 L142.271,252.059 L143.432,252.059 L144.672,252.059 L144.672,255.466 C144.672,257.789 144.646,258.951 144.594,258.951 C144.491,258.951 144.310,258.900 144.053,258.796 C143.846,258.693 143.613,258.538 143.355,258.331 L142.969,258.022 L139.019,258.022 C136.333,258.022 134.992,258.074 134.992,258.176 C134.992,258.281 134.939,258.331 134.837,258.331 C134.732,258.331 134.527,258.254 134.217,258.099 C133.908,257.944 133.637,257.751 133.404,257.519 C133.173,257.286 133.004,257.067 132.900,256.860 C132.797,256.603 132.708,256.318 132.630,256.009 C132.553,255.699 132.514,254.511 132.514,252.446 C132.307,252.498 132.113,252.537 131.932,252.562 C131.751,252.589 131.585,252.628 131.430,252.678 C130.706,252.783 129.958,252.860 129.184,252.911 C128.357,252.962 127.840,252.989 127.636,252.989 C127.479,252.989 127.390,252.976 127.364,252.950 C127.338,252.924 127.326,252.860 127.326,252.755 C127.377,252.551 127.454,252.407 127.558,252.330 C127.660,252.252 127.868,252.214 128.176,252.214 C128.590,252.163 129.079,252.059 129.648,251.904 C130.268,251.698 130.913,251.466 131.585,251.207 L132.514,250.897 L132.514,246.019 L132.514,241.062 L133.753,241.062 Z M125.699,241.604 L127.171,241.604 L127.016,241.837 L125.699,243.773 C124.924,244.909 124.306,245.838 123.840,246.561 L123.066,247.722 L123.066,252.911 C123.066,256.422 123.015,258.383 122.911,258.796 C122.860,259.210 122.757,259.570 122.602,259.881 C122.447,260.190 122.240,260.436 121.982,260.616 C121.724,260.798 121.465,260.887 121.208,260.887 L120.898,260.887 L120.898,255.543 L120.898,250.201 L120.201,250.742 C119.685,251.207 119.244,251.595 118.885,251.904 C118.471,252.214 118.084,252.498 117.723,252.755 C117.309,253.015 116.844,253.298 116.329,253.608 C115.812,253.917 115.490,254.022 115.361,253.917 C115.232,253.815 115.141,253.711 115.090,253.608 C115.038,253.505 115.683,252.755 117.026,251.361 C118.316,250.072 119.220,249.143 119.736,248.574 C120.304,247.852 120.666,247.362 120.821,247.102 C121.130,246.742 121.775,245.736 122.757,244.082 L124.228,241.604 L125.699,241.604 Z M130.887,257.712 L132.592,257.712 L132.592,260.345 L132.592,262.978 L139.639,262.978 L146.686,262.978 L146.686,263.752 L146.686,264.527 L139.639,264.527 L132.592,264.527 L132.592,267.392 C132.592,268.476 132.577,269.289 132.553,269.832 C132.525,270.373 132.514,270.774 132.514,271.032 C132.410,271.496 132.282,271.896 132.126,272.232 C131.971,272.567 131.764,272.864 131.507,273.122 C131.247,273.381 130.977,273.587 130.693,273.743 C130.410,273.897 130.087,273.975 129.726,273.975 L129.184,273.975 L129.184,269.250 L129.184,264.527 L121.518,264.527 L113.773,264.527 L113.773,264.295 C113.721,264.140 113.696,263.907 113.696,263.597 L113.773,263.055 L121.439,262.978 L129.184,262.978 L129.184,260.422 C129.184,258.668 129.195,257.777 129.223,257.751 C129.247,257.726 129.803,257.712 130.887,257.712 Z"/><path d="M169.995,262.746 L166.200,262.746 L165.813,263.365 L165.348,263.985 L166.510,264.759 C167.285,265.328 168.032,265.843 168.756,266.309 C169.581,266.825 170.046,267.082 170.150,267.082 C170.253,267.082 170.640,266.722 171.311,265.998 C171.879,265.328 172.446,264.631 173.015,263.908 C173.582,263.185 173.867,262.811 173.867,262.785 C173.867,262.760 172.576,262.746 169.995,262.746 Z M170.459,251.672 L162.018,251.672 L162.018,252.679 L162.018,253.685 L170.459,253.685 L178.823,253.685 L178.823,252.679 L178.823,251.749 L170.459,251.672 Z M170.459,248.188 L162.018,248.188 L162.018,249.194 L162.018,250.201 L170.459,250.201 L178.900,250.201 L178.900,249.194 L178.823,248.188 L170.459,248.188 Z M168.136,255.157 L162.018,255.157 L162.018,256.086 C162.018,256.293 162.005,256.473 161.980,256.629 C161.953,256.783 161.941,256.899 161.941,256.977 L161.941,257.132 C161.941,257.158 161.967,257.170 162.018,257.170 L170.382,257.170 L178.823,257.170 L178.900,256.241 L178.900,255.235 L176.577,255.157 L168.136,255.157 Z M170.382,242.147 L184.941,242.147 L184.941,242.844 L184.941,243.541 L178.203,243.541 L171.389,243.541 L171.311,244.393 C171.311,244.961 171.259,245.426 171.156,245.787 C171.104,245.890 171.052,245.994 171.002,246.096 C170.950,246.200 170.924,246.290 170.924,246.367 C170.924,246.445 170.897,246.483 170.847,246.483 L171.621,246.638 L174.874,246.638 C177.557,246.638 178.900,246.588 178.900,246.483 C178.900,246.381 179.442,246.329 180.527,246.329 L182.153,246.329 L182.153,251.827 C182.101,255.544 182.010,257.596 181.882,257.984 C181.752,258.371 181.584,258.694 181.378,258.951 C181.120,259.261 180.836,259.520 180.527,259.726 C180.217,259.881 179.855,259.958 179.442,259.958 L178.900,259.958 L178.900,259.339 L178.823,258.719 L170.150,258.642 L161.476,258.642 L161.089,259.106 C160.830,259.416 160.547,259.636 160.237,259.765 C159.928,259.894 159.591,259.958 159.231,259.958 L158.688,259.958 L158.688,253.066 L158.688,246.174 L160.315,246.251 C161.399,246.251 161.967,246.329 162.018,246.483 L162.018,246.638 L165.038,246.638 L167.982,246.638 L167.982,245.089 L167.982,243.541 L161.941,243.541 L155.823,243.541 L155.823,242.844 L155.823,242.147 L170.382,242.147 Z M165.968,259.339 C167.310,259.339 167.982,259.365 167.982,259.416 C167.982,259.468 167.826,259.778 167.517,260.345 L167.052,261.197 L172.860,261.197 L178.668,261.197 L178.745,261.507 L178.745,262.282 C178.694,262.591 178.578,262.746 178.397,262.746 C178.216,262.746 177.867,263.133 177.352,263.908 C176.835,264.579 176.318,265.224 175.803,265.843 C175.286,266.515 174.899,266.980 174.641,267.237 C174.382,267.497 174.073,267.780 173.712,268.089 C173.453,268.348 173.325,268.503 173.325,268.554 C173.376,268.554 173.635,268.631 174.099,268.786 C174.512,268.891 175.028,268.993 175.648,269.096 C176.163,269.200 177.274,269.225 178.978,269.174 C180.732,269.174 181.843,269.148 182.308,269.096 C182.772,268.993 183.056,268.993 183.159,269.096 C183.315,269.251 183.702,269.793 184.321,270.723 C184.991,271.702 185.328,272.219 185.328,272.271 C185.276,272.271 184.941,272.322 184.321,272.426 C183.702,272.477 182.862,272.528 181.805,272.581 C180.746,272.632 179.803,272.632 178.978,272.581 C178.151,272.528 177.493,272.465 177.003,272.387 C176.512,272.310 176.009,272.219 175.493,272.116 C174.976,271.962 174.486,271.780 174.021,271.574 C173.453,271.369 172.938,271.136 172.473,270.877 C172.008,270.671 171.621,270.464 171.311,270.257 L171.002,270.102 L169.995,270.568 C169.426,270.826 168.806,271.084 168.136,271.342 C167.465,271.547 166.793,271.729 166.123,271.884 C165.399,272.089 164.599,272.245 163.722,272.349 C162.896,272.503 161.941,272.632 160.857,272.736 C159.876,272.839 158.766,272.916 157.527,272.968 C156.339,272.916 155.746,272.864 155.746,272.813 C155.796,272.709 155.862,272.619 155.939,272.542 C156.017,272.465 156.339,272.374 156.908,272.271 C157.475,272.219 158.224,272.089 159.153,271.884 C160.133,271.729 161.012,271.522 161.786,271.264 C162.508,271.058 163.205,270.851 163.877,270.645 C164.444,270.439 165.064,270.180 165.735,269.870 C166.406,269.561 167.052,269.251 167.671,268.941 L168.523,268.399 C168.523,268.348 168.239,268.089 167.671,267.625 C167.155,267.160 166.535,266.567 165.813,265.843 L164.729,264.759 L164.264,265.224 C163.955,265.483 163.515,265.871 162.948,266.386 C162.379,266.850 161.811,267.290 161.244,267.703 C160.625,268.063 160.030,268.399 159.463,268.709 C158.894,269.019 158.275,269.303 157.605,269.561 C156.881,269.819 156.211,270.052 155.591,270.257 C154.971,270.413 154.623,270.478 154.545,270.452 C154.468,270.426 154.429,270.348 154.429,270.219 C154.429,270.091 154.455,270.000 154.507,269.948 C154.610,269.897 154.971,269.664 155.591,269.251 C156.158,268.891 156.752,268.451 157.372,267.935 C158.043,267.419 158.662,266.877 159.231,266.309 C159.850,265.741 160.392,265.147 160.857,264.527 C161.270,264.011 161.657,263.495 162.018,262.978 C162.276,262.566 162.664,261.844 163.180,260.810 L163.877,259.339 L165.968,259.339 Z"/><path d="M207.204,240.443 C207.127,240.443 206.597,240.830 205.617,241.605 C204.687,242.224 203.938,242.741 203.371,243.154 C202.906,243.463 202.467,243.723 202.054,243.929 C201.641,244.135 201.137,244.354 200.544,244.586 C199.950,244.819 199.318,245.012 198.647,245.167 C198.027,245.322 197.382,245.451 196.711,245.555 C195.936,245.658 195.472,245.709 195.317,245.709 L194.775,245.787 L194.775,246.096 C194.775,246.356 194.878,246.483 195.085,246.483 C195.395,246.536 196.014,246.588 196.943,246.638 C197.924,246.690 198.775,246.665 199.499,246.561 C199.963,246.511 200.453,246.458 200.970,246.406 L201.435,246.329 L201.435,248.652 L196.866,248.652 L196.866,250.201 L201.435,250.201 L201.435,274.672 L201.667,274.672 C201.873,274.672 202.132,274.620 202.442,274.517 C202.699,274.413 202.970,274.272 203.255,274.091 C203.538,273.910 203.783,273.690 203.990,273.433 C204.196,273.174 204.378,272.787 204.533,272.271 L204.765,271.574 L204.842,264.062 L204.920,256.474 L209.489,256.474 L209.489,254.924 L204.842,254.924 L204.842,250.201 L209.489,250.201 L209.489,248.652 L204.842,248.652 L204.842,245.400 L205.462,245.089 C205.822,244.884 206.701,244.238 208.095,243.154 C208.817,242.638 209.346,242.238 209.682,241.953 C210.017,241.670 210.186,241.515 210.186,241.489 C210.186,241.463 209.708,241.283 208.753,240.946 C207.797,240.612 207.282,240.443 207.204,240.443 Z"/><path d="M196.634,252.989 L196.634,258.167 C196.634,261.102 195.347,263.830 193.241,265.686 C193.255,265.740 193.278,265.789 193.289,265.843 C194.504,266.033 196.115,266.011 197.621,264.871 C199.015,263.816 199.732,262.087 199.732,260.339 L199.732,252.989 L196.634,252.989 Z"/><path d="M221.105,265.921 L218.085,265.998 L214.988,265.998 L214.988,247.335 L218.085,247.413 L221.105,247.413 L221.105,265.921 Z M221.183,244.780 L221.183,245.322 L221.105,245.787 L218.085,245.864 L214.988,245.864 L214.988,244.780 L211.812,244.780 L211.812,257.789 C211.812,266.515 211.851,270.877 211.928,270.877 C212.006,270.877 212.225,270.826 212.587,270.722 C212.947,270.619 213.284,270.489 213.594,270.335 C213.851,270.180 214.109,269.974 214.368,269.716 C214.626,269.457 214.780,269.173 214.832,268.863 C214.935,268.554 214.988,268.244 214.988,267.934 L214.988,267.469 L218.085,267.547 L221.105,267.547 L221.183,269.173 C221.183,270.310 221.208,270.877 221.260,270.877 C221.311,270.877 221.543,270.799 221.957,270.644 C222.421,270.542 222.731,270.439 222.886,270.335 C223.041,270.232 223.235,270.077 223.467,269.870 C223.699,269.664 223.893,269.457 224.048,269.250 L224.203,268.863 L224.280,256.860 L224.280,244.780 L221.183,244.780 Z"/></g></svg><text x="160" y="300" font-family="'Noto Serif SC','Songti SC','STSong',serif" font-size="70" font-weight="500" letter-spacing="3" fill="#614A25">木 · 花 · 脂 · 草</text><text x="160" y="352" font-family="'Noto Serif SC','Songti SC','STSong',serif" font-size="32" font-weight="400" letter-spacing="2" fill="#7A6238">众香和，方成香。</text><line x1="160" y1="384" x2="260" y2="384" stroke="#614A25" stroke-width="3"/><text x="160" y="440" font-family="'Noto Serif SC','Songti SC','STSong',serif" font-size="26" font-weight="300" letter-spacing="1" fill="#453C30" text-anchor="start" >不是一种香的独白，</text><text x="160" y="477" font-family="'Noto Serif SC','Songti SC','STSong',serif" font-size="26" font-weight="300" letter-spacing="1" fill="#453C30" text-anchor="start" >而是众香彼此成全。</text><text x="160" y="543" font-family="'Noto Serif SC','Songti SC','STSong',serif" font-size="19" letter-spacing="0.5"><tspan font-weight="500" fill="#614A25">木</tspan><tspan fill="#453C30" font-weight="300"> — 沉稳，带着纤维与温度。</tspan></text><text x="160" y="575" font-family="'Noto Serif SC','Songti SC','STSong',serif" font-size="19" letter-spacing="0.5"><tspan font-weight="500" fill="#614A25">花</tspan><tspan fill="#453C30" font-weight="300"> — 轻盈，留下清晰余韵。</tspan></text><text x="160" y="607" font-family="'Noto Serif SC','Songti SC','STSong',serif" font-size="19" letter-spacing="0.5"><tspan font-weight="500" fill="#614A25">脂</tspan><tspan fill="#453C30" font-weight="300"> — 凝结香气的厚度。</tspan></text><text x="160" y="639" font-family="'Noto Serif SC','Songti SC','STSong',serif" font-size="19" letter-spacing="0.5"><tspan font-weight="500" fill="#614A25">草</tspan><tspan fill="#453C30" font-weight="300"> — 连接土地与季节。</tspan></text><text x="160" y="671" font-family="'Noto Serif SC','Songti SC','STSong',serif" font-size="19" letter-spacing="0.5"><tspan font-weight="500" fill="#614A25">时间</tspan><tspan fill="#453C30" font-weight="300"> — 让不同的香气渐渐相合。</tspan></text><clipPath id="p2clipDom"><rect x="0" y="0" width="1276" height="1040" rx="0"/></clipPath><g transform="translate(850,0)" clip-path="url(#p2clipDom)"><image href="../images/posters/series-materials-main.jpg" x="0" y="0" width="1276" height="1040" preserveAspectRatio="xMidYMid slice"/></g><clipPath id="p2clipSup0"><rect x="0" y="0" width="1044" height="260" rx="0"/></clipPath><g transform="translate(2126,0)" clip-path="url(#p2clipSup0)"><image href="../images/posters/series-materials-wood.jpg" x="0" y="0" width="1044" height="260" preserveAspectRatio="xMidYMid slice"/></g><clipPath id="p2clipSup1"><rect x="0" y="0" width="1044" height="260" rx="0"/></clipPath><g transform="translate(2126,260)" clip-path="url(#p2clipSup1)"><image href="../images/posters/series-materials-flower.jpg" x="0" y="0" width="1044" height="260" preserveAspectRatio="xMidYMid slice"/></g><clipPath id="p2clipSup2"><rect x="0" y="0" width="1044" height="260" rx="0"/></clipPath><g transform="translate(2126,520)" clip-path="url(#p2clipSup2)"><image href="../images/posters/series-materials-resin.jpg" x="0" y="0" width="1044" height="260" preserveAspectRatio="xMidYMid slice"/></g><clipPath id="p2clipSup3"><rect x="0" y="0" width="1044" height="260" rx="0"/></clipPath><g transform="translate(2126,780)" clip-path="url(#p2clipSup3)"><image href="../images/posters/series-materials-botanical.jpg" x="0" y="0" width="1044" height="260" preserveAspectRatio="xMidYMid slice"/></g><line x1="2126" y1="260" x2="3170" y2="260" stroke="#F3EFE6" stroke-width="2" opacity="0.55"/><line x1="2126" y1="520" x2="3170" y2="520" stroke="#F3EFE6" stroke-width="2" opacity="0.55"/><line x1="2126" y1="780" x2="3170" y2="780" stroke="#F3EFE6" stroke-width="2" opacity="0.55"/><line x1="850" y1="90" x2="850" y2="950" stroke="#B5A480" stroke-width="1" opacity="0.28"/><line x1="2126" y1="0" x2="2126" y2="1040" stroke="#F3EFE6" stroke-width="2" opacity="0.55"/></svg>