<svg width="400" height="400" viewBox="0 0 400 400" xmlns="http://www.w3.org/2000/svg">
  <defs>
    <linearGradient id="cu" x1="0" y1="0" x2="1" y2="1">
      <stop offset="0" stop-color="#C77B45"/><stop offset="0.5" stop-color="#A8602F"/><stop offset="1" stop-color="#8A4A23"/>
    </linearGradient>
    <path id="t" d="M 200,200 m -148,0 a 148,148 0 1 1 296,0" />
  </defs>
  <rect width="400" height="400" fill="#1C2024"/>
  <circle cx="200" cy="200" r="190" stroke="url(#cu)" stroke-width="2" fill="none"/>
  <circle cx="200" cy="200" r="178" stroke="url(#cu)" stroke-width="6" fill="none"/>
  <text font-family="'Spectral',serif" font-size="29" letter-spacing="9" fill="url(#cu)" text-anchor="middle"><textPath href="#t" startOffset="50%">GONG TIEJING</textPath></text>
  <g fill="url(#cu)"><circle cx="200" cy="384" r="4.5"/><circle cx="146" cy="377" r="4.5"/><circle cx="254" cy="377" r="4.5"/></g>
  <g transform="translate(200,202)">
    <path d="M 70,-52 A 92,92 0 1 0 78,52" stroke="url(#cu)" stroke-width="24" fill="none" stroke-linecap="round"/>
    <path d="M 84,12 L 28,12" stroke="url(#cu)" stroke-width="24" fill="none" stroke-linecap="round"/>
    <path d="M 56,-18 L 56,42" stroke="url(#cu)" stroke-width="15" fill="none" stroke-linecap="round"/>
    <circle cx="56" cy="12" r="14" fill="#1C2024"/><circle cx="56" cy="12" r="14" fill="none" stroke="url(#cu)" stroke-width="3.5"/><circle cx="56" cy="12" r="4.5" fill="url(#cu)"/>
  </g>
</svg>
