<svg width="400" height="400" viewBox="0 0 400 400" xmlns="http://www.w3.org/2000/svg" role="img" aria-label="Gong Tiejing secondary chop — single-color, for engraving and one-color print">
  <title>Gong Tiejing — Secondary Chop (Single-Color)</title>
  <rect x="24" y="24" width="352" height="352" rx="10" stroke="#000000" stroke-width="7" fill="none"/>
  <line x1="200" y1="40" x2="200" y2="360" stroke="#000000" stroke-width="1.5" opacity="0.28"/>
  <line x1="40" y1="200" x2="360" y2="200" stroke="#000000" stroke-width="1.5" opacity="0.28"/>
  <g stroke="#000000" stroke-width="3" stroke-linecap="round">
    <path d="M 48,72 L 72,72 M 72,48 L 72,72"/>
    <path d="M 352,72 L 328,72 M 328,48 L 328,72"/>
    <path d="M 48,328 L 72,328 M 72,352 L 72,328"/>
    <path d="M 352,328 L 328,328 M 328,352 L 328,328"/>
  </g>
  <g transform="translate(200,200)">
    <path d="M 64,-50 A 86,86 0 1 0 72,50" stroke="#000000" stroke-width="22" fill="none" stroke-linecap="round"/>
    <path d="M 80,10 L 26,10" stroke="#000000" stroke-width="22" fill="none" stroke-linecap="round"/>
    <path d="M 52,-16 L 52,38" stroke="#000000" stroke-width="14" fill="none" stroke-linecap="round"/>
    <circle cx="52" cy="10" r="13" fill="none" stroke="#000000" stroke-width="3.2"/>
    <circle cx="52" cy="10" r="4" fill="#000000"/>
  </g>
</svg>
