<svg xmlns="http://www.w3.org/2000/svg" width="1200" height="630" viewBox="0 0 1200 630"><rect width="1200" height="630" fill="#1C2024"/><g opacity=".08" stroke="#9AA3AB"><path d="M0 90h1200M0 180h1200M0 270h1200M0 360h1200M0 450h1200M0 540h1200"/><path d="M120 0v630M240 0v630M360 0v630M480 0v630M600 0v630M720 0v630M840 0v630M960 0v630M1080 0v630"/></g><circle cx="990" cy="90" r="280" fill="none" stroke="#A8602F" opacity=".45"/><circle cx="990" cy="90" r="220" fill="none" stroke="#A8602F" opacity=".18"/><text x="100" y="238" fill="#C77B45" font-size="28" font-family="Arial,sans-serif" letter-spacing="10">东方香事 · 日常清供</text><text x="100" y="365" fill="#FDFCFA" font-size="92" font-family="serif" letter-spacing="18">华夏和 · 枕岚</text><text x="104" y="438" fill="#C2C9CF" font-size="34" font-family="serif" letter-spacing="10">线香产品全系展示</text><rect x="100" y="500" width="84" height="4" fill="#A8602F"/></svg>