<svg xmlns="http://www.w3.org/2000/svg" viewBox="0 0 1200 650" role="img" aria-labelledby="t d"><title id="t">青年非遗100国际空间网络地图</title><desc id="d">真实地理底图，标注中国、中东和东南亚主要城市点位。</desc><rect width="1200" height="650" rx="28" fill="#f8f4ec"/><g fill="#ddd5c8" stroke="#a99f90" stroke-width="1.15" stroke-linejoin="round"><path d="M1156.3,0.0 L1135.8,35.7 L1153.9,80.4 L1047.6,144.6 L1035.9,202.9 L1012.8,208.4 L1015.0,186.4 L999.6,172.8 L972.8,156.1 L957.4,179.6 L942.0,204.7 L951.4,247.6 L963.5,260.8 L949.6,281.6 L936.5,297.8 L915.0,312.2 L885.5,318.9 L866.4,324.9 L841.6,325.8 L815.7,335.8 L840.2,415.3 L811.8,425.8 L786.1,422.9 L750.2,407.9 L784.6,491.3 L732.9,443.4 L731.3,395.8 L713.2,370.2 L692.4,374.4 L680.8,333.1 L649.0,317.1 L630.2,318.6 L573.0,369.0 L542.9,425.1 L484.6,373.5 L473.3,317.8 L438.0,303.8 L323.1,286.9 L239.3,245.9 L250.0,285.0 L315.1,281.7 L328.5,336.2 L243.4,386.1 L142.0,328.7 L92.4,269.6 L96.4,188.8 L24.0,190.0 L16.8,175.3 L39.7,154.6 L133.8,152.2 L135.9,106.5 L99.7,112.5 L74.8,112.3 L57.6,102.0 L46.1,117.1 L11.8,159.9M69.2,235.7 L104.8,303.3 L148.8,378.4 L208.1,419.7 L259.0,424.6 L151.9,540.8 L156.4,611.6M1003.6,650.0 L1018.7,638.8M1047.7,650.0 L1059.6,629.3 L1085.1,622.2 L1110.2,627.7 L1104.9,650.0M1166.6,650.0 L1187.7,644.7M1200.0,586.0 L1183.9,587.0 L1139.6,590.0 L1130.5,567.5 L1084.5,550.9 L1073.1,536.8 L1096.3,538.5 L1200.0,553.8M900.0,552.2 L867.0,541.4 L842.8,516.4 L889.7,475.5 L927.4,459.2 L923.6,479.4 L928.9,506.5 L913.1,542.8M225.2,650.0 L241.9,626.0M790.0,563.9 L705.4,474.9 L774.1,509.3 L794.8,534.2 L801.6,568.2M1110.0,216.3 L1071.4,215.2 L1123.3,189.1 L1158.3,147.6 L1148.9,205.7 L1120.2,208.5M944.8,561.0 L948.8,524.1 L1001.7,501.4 L966.7,533.8 L966.1,552.6M890.0,592.9 L808.0,574.2 L894.4,585.8M990.0,401.0 L959.6,386.1 L973.2,352.8 L981.1,394.6 L990.0,401.0M1000.0,464.3 L969.0,453.1 L1005.4,436.6 L1007.0,451.5M1182.6,142.5 L1148.2,137.0M1170.0,107.1 L1182.1,57.7 L1175.1,100.4M552.6,463.0 L563.5,440.8M1056.7,240.4 L1047.4,226.5M840.0,353.0 L840.0,353.0M1080.0,222.8 L1095.9,211.6M1030.0,519.1 L1037.2,502.4M1030.0,543.8 L1029.1,548.2M920.0,597.4 L920.0,597.4M980.0,590.7 L980.0,590.7M982.2,427.4 L982.2,427.4M816.9,543.2 L818.4,539.3M930.0,437.3 L937.5,428.0M243.5,166.3 L223.8,109.1 L264.1,112.3 L274.1,141.7 L280.4,162.6 L290.3,188.5M66.1,534.7 L97.4,517.2 L80.3,542.1M364.5,118.1 L344.9,108.5 L369.6,115.4M40.5,554.8 L41.9,570.6M844.9,20.3 L787.4,56.4M89.3,602.8 L93.3,620.2M491.9,103.0 L484.2,108.6M808.2,427.4 L805.3,376.9 L797.6,369.3 L804.5,422.4M1053.3,99.5 L1119.3,66.6 L1153.6,53.2 L1082.6,89.9M946.1,229.9 L911.8,251.6 L946.1,229.9M446.2,264.7 L429.0,276.3M184.1,11.9 L184.2,12.0M863.8,307.4 L863.8,307.4M190.3,213.0 L195.7,222.1"/></g><path d="M540.0,215.7 L539.8,211.0 L532.8,207.1 L529.1,200.0 L519.2,198.6 L511.0,195.9 L506.7,189.4 L497.1,186.7 L499.7,184.0 L499.8,177.4 L493.6,173.3 L487.4,169.2 L490.3,162.3 L497.7,156.4 L506.6,156.5 L515.3,155.1 L522.7,151.2 L531.7,150.6 L540.8,146.9 L549.9,143.1 L551.7,136.7 L558.2,132.2 L556.3,123.4 L552.3,117.5 L554.5,115.4 L564.2,113.2 L573.7,114.2 L573.6,109.9 L577.6,101.7 L583.3,96.6 L593.1,98.6 L602.4,98.2 L606.5,91.3 L610.5,85.1 L617.7,81.1 L625.7,78.7 L629.8,84.0 L639.3,86.7 L648.8,89.5 L656.1,95.4 L659.1,102.9 L658.9,111.8 L665.9,114.6 L675.8,115.3 L685.3,116.1 L694.7,119.1 L704.1,122.0 L709.4,129.6 L714.8,136.0 L724.8,136.1 L734.8,136.2 L744.8,136.3 L754.8,136.4 L764.2,137.8 L773.8,140.0 L783.5,142.3 L793.2,144.6 L802.0,145.6 L811.4,142.6 L820.8,139.6 L829.7,138.4 L839.7,138.6 L848.9,137.1 L857.8,133.7 L866.4,129.1 L865.9,123.2 L868.5,116.4 L876.7,116.2 L886.4,118.0 L894.5,112.9 L903.4,111.9 L912.0,108.8 L920.4,103.9 L929.2,101.5 L939.2,101.0 L949.2,100.5 L942.7,95.0 L935.6,89.1 L926.0,91.5 L916.8,91.2 L906.9,89.9 L910.0,82.6 L914.5,74.7 L910.2,71.0 L900.3,69.7 L891.4,69.6 L882.7,73.9 L874.0,76.0 L864.2,77.6 L855.0,78.7 L845.1,77.9 L835.5,77.1M39.0,592.0 L33.7,598.9 L36.0,607.6 L35.2,615.4 L36.7,622.6 L44.2,625.7 L48.0,629.1 L46.0,636.1 L37.3,633.2 L30.3,626.9 L23.3,620.6 L16.3,623.3 L7.3,621.4M366.1,292.1 L368.4,283.5 L377.2,280.5 L383.4,275.1 L377.7,270.9 L375.0,263.9 L367.2,260.1 L361.0,253.1 L362.6,246.5 L368.5,240.2 L358.4,236.0 L356.8,227.2 L358.3,219.2 L360.5,206.6 L363.9,199.4 L373.5,201.7 L380.5,198.1 L388.9,195.1 L395.8,191.1 L400.6,184.8 L409.7,182.4 L419.3,184.9 L428.9,187.3 L437.4,184.6 L448.3,182.1 L456.0,176.5 L463.3,176.8 L466.3,184.3 L469.5,188.7 L478.5,184.8 L487.0,183.4 L496.9,184.6M0.0,127.7 L8.9,126.6 L18.4,123.9 L28.0,125.1M0.0,445.6 L6.1,452.3 L14.0,457.3 L18.0,463.9 L24.3,469.5 L29.6,476.3 L38.8,477.0 L47.7,476.2 L55.2,482.0 L58.5,488.7 L59.9,496.0 L58.7,501.3 L51.5,507.4 L48.5,515.2 L46.8,524.0 L49.8,527.6 L58.5,525.3 L68.5,525.3 L78.5,525.3 L88.5,525.4 L97.2,528.8 L105.9,533.2 L114.7,537.5 L123.4,541.8 L126.1,547.6 L134.2,552.9 L142.0,558.0M641.4,323.9 L640.4,315.0 L637.1,307.2 L637.4,300.6 L631.3,296.2 L639.7,291.5 L632.4,287.1 L633.9,279.7 L641.6,283.7 L647.8,288.2 L654.4,292.0 L664.3,293.1 L674.2,294.3 L668.2,299.8 L662.1,305.9 L666.5,311.3 L673.0,306.3 L674.6,315.1 L676.2,323.9M136.0,356.2 L128.2,361.8 L119.4,367.0 L117.5,375.8 L115.5,384.5 L113.6,393.2 L111.7,402.0 L102.9,408.7 L99.7,416.4 L92.7,424.2 L91.9,433.1 L89.2,440.3 L81.6,443.1 L85.4,447.9 L92.9,453.3 L98.7,460.2 L102.9,468.3 L108.8,471.7 L113.5,476.7 L122.8,479.0 L131.0,484.2 L140.1,485.4 L148.8,484.0 L157.0,478.8 L165.5,480.4 L173.8,478.9 L182.7,474.8 L191.9,472.8 L200.9,471.5 L207.9,465.2 L214.9,458.8 L221.9,452.4 L228.9,446.1 L221.9,445.2 L212.5,442.5 L203.2,439.2 L193.9,435.9 L184.6,432.7 L179.5,425.8 L178.9,418.8M99.6,255.0 L109.5,256.4 L116.3,251.5 L125.0,249.3 L128.6,243.6 L121.6,237.3 L126.7,234.0 L136.3,231.3 L142.2,227.8 L138.1,219.6 L130.0,223.1 L121.3,227.3 L112.7,227.1M761.5,324.4 L767.6,325.5 L766.9,316.6 L776.6,314.6 L787.0,315.0 L795.5,312.7 L803.3,308.3 L810.7,312.6 L817.9,315.2 L819.7,321.5M0.0,316.0 L0.0,324.6 L0.0,333.5M628.4,78.6 L637.8,75.5 L647.2,72.4 L656.5,69.2 L665.9,66.1 L674.8,63.6 L684.7,65.0 L693.3,66.9 L700.3,71.4 L710.3,72.3 L720.2,73.3 L728.6,70.9 L730.7,65.6 L731.7,59.1 L738.7,52.7 L748.0,54.1 L757.7,56.2 L767.5,58.3 L772.9,63.8 L779.8,68.3 L789.2,68.7 L799.1,67.5 L808.5,67.8 L818.3,69.6 L828.1,71.4M134.9,618.1 L126.6,619.3 L117.7,619.7 L108.4,618.1M99.5,619.1 L94.4,623.6 L95.1,632.2 L99.6,639.3 L106.2,645.9M94.4,650.0 L90.2,646.4 L82.5,642.7 L77.1,636.8 L80.5,628.7 L84.7,623.0 L82.7,614.3 L85.9,609.0 L80.5,601.5 L87.2,601.8 L94.2,605.6 L97.5,614.0M495.7,186.8 L485.9,188.4 L476.0,190.1 L466.3,191.8 L463.3,197.8 L464.5,204.9 L460.5,211.4 L453.9,213.3 L451.6,217.2 L447.6,221.5 L444.0,228.5 L438.5,233.3 L428.9,235.7 L419.2,238.0 L415.0,244.4 L410.6,251.0 L400.8,252.9 L391.2,254.8 L381.3,253.5 L371.4,252.2 L361.5,250.9M0.0,91.4 L8.7,89.0 L17.8,87.3 L25.1,93.4 L30.8,99.9 L30.7,108.8 L38.4,112.2M737.4,424.3 L742.7,416.8 L746.1,409.4 L743.6,400.8 L741.2,392.9 L735.1,385.8 L733.8,378.9 L738.8,371.2 L732.8,365.3 L727.7,357.6 L727.7,351.1 L729.9,342.4 L737.5,340.5 L744.3,335.2M539.4,219.0 L545.3,225.0 L536.9,227.5 L535.7,231.7 L542.6,237.5 L551.1,242.2 L559.5,247.0 L553.8,251.6 L550.6,259.8 L559.6,263.7 L568.6,267.6 L577.6,271.5 L586.7,271.4 L595.5,273.9 L603.2,278.3 L613.1,279.4M696.3,255.3 L704.7,257.4 L711.5,258.8 L719.5,264.6 L720.5,268.8 L720.6,274.8 L711.1,274.1 L702.6,278.8 L698.7,286.1 L695.4,294.5 L692.0,302.9 L683.8,302.1 L682.7,310.0 L682.0,318.3M198.0,163.4 L190.7,166.6 L194.7,174.7 L193.8,181.3 L198.8,188.9 L203.5,196.0 L213.3,197.6 L209.4,204.7 L204.8,212.6 L208.6,219.8 L215.7,224.6 L224.3,228.0 L228.2,235.0 L230.3,242.2 L234.8,248.5M780.9,354.9 L791.1,354.6 L797.7,361.2 L797.5,369.3 L804.6,375.5 L804.7,383.1 L803.8,390.5 L813.3,387.8M723.5,265.1 L731.3,267.1 L737.4,274.4 L737.4,282.4 L733.2,289.0 L726.9,294.9 L725.4,303.3 L735.2,301.8 L738.8,306.6 L744.5,311.8 L742.0,318.5 L749.7,320.1M24.5,471.8 L14.7,470.1 L5.4,468.5M846.5,498.0 L853.5,507.3 L862.5,508.1 L871.3,505.2 L879.6,503.7 L888.5,505.1 L896.4,502.0 L900.5,493.9 L904.6,485.8 L908.7,477.7 L917.7,478.3 L927.6,479.1M619.5,280.2 L629.4,281.5 L630.9,273.6 L634.1,266.8 L638.8,271.9M639.3,273.1 L645.1,277.5 L655.1,277.2 L665.1,276.9 L669.9,274.3 L665.6,267.4 L655.9,265.4 L647.3,266.6 L639.9,272.6M941.0,71.3 L947.2,64.3 L953.4,57.3 L956.3,51.2 L952.0,45.7 L960.6,41.8 L970.6,40.8 L980.5,39.8 L989.4,41.3 L999.0,43.7 L1008.6,46.0 L1014.5,52.0 L1019.5,59.7 L1024.6,67.4M771.4,317.0 L776.8,323.6 L780.2,329.2 L787.7,332.0 L795.4,331.9 L799.5,338.1 L793.4,341.4M495.9,235.1 L494.2,242.5 L487.5,249.1 L480.8,255.7 L474.2,262.3 L467.0,267.9 L457.5,269.2 L450.3,270.2 L447.0,278.8 L451.2,283.7 L457.0,288.5 L460.3,297.0 L454.1,299.5 L444.1,300.2M0.0,147.3 L9.4,148.5 L15.0,149.4M779.2,412.8 L776.3,404.3 L773.4,395.8 L780.0,390.3 L788.8,388.8 L798.8,388.7M172.1,184.1 L162.3,186.0 L152.5,188.0 L142.8,189.9 L133.5,189.4 L123.5,188.9 L116.8,191.1 L110.4,196.1M1056.0,138.7 L1049.1,133.5 L1044.1,139.2 L1034.4,141.5 L1031.5,147.7 L1022.8,146.1 L1015.1,146.9 L1008.3,153.1 L999.3,157.0M1097.4,86.7 L1092.8,94.6 L1088.2,102.5 L1083.6,110.4 L1077.2,114.1 L1067.8,113.1 L1059.5,117.2 L1061.9,125.8 L1061.3,134.2 L1054.6,136.8M790.4,341.1 L796.9,348.0 L804.2,353.6 L810.0,360.9 L815.7,368.2M92.2,237.5 L95.7,245.9 L99.0,253.9M362.8,199.4 L361.6,190.6 L353.3,190.0 L345.9,184.1 L337.5,181.1 L327.7,179.2 L317.2,176.1 L307.2,177.0 L299.1,181.3 L289.9,183.8M42.1,546.2 L44.0,554.9 L51.7,551.1 L57.6,544.0 L49.8,537.0 L44.5,540.6 L41.6,544.0M1025.9,69.4 L1031.2,75.2 L1041.1,76.1 L1050.3,78.7 L1057.2,83.0 L1059.9,91.6 L1068.8,90.6 L1078.7,89.2 L1088.6,87.9M363.8,149.3 L353.9,148.2 L350.7,141.8 L343.2,138.0 L335.1,139.8 L326.8,139.8 L319.9,144.4 L316.5,148.8M52.2,650.0 L60.7,647.4 L70.2,644.7 L79.7,641.9M755.8,337.0 L757.9,342.4 L761.9,346.6 L760.0,355.4M814.6,412.5 L809.4,415.4 L809.1,420.1 L800.2,419.5M528.2,200.3 L520.7,206.3 L511.8,207.8 L501.8,207.9 L491.8,207.9 L493.0,213.9 L491.0,221.4 L499.3,226.3M165.3,146.7 L175.3,146.3 L183.1,149.5 L186.6,156.5 L192.1,161.3M0.0,320.6 L10.0,320.6 L20.0,320.6 L30.0,320.6 L40.0,320.6 L50.0,320.6 L60.0,320.6 L69.5,320.6 L79.5,320.6M815.9,368.4 L824.4,373.1 L827.0,380.5M566.0,64.7 L575.9,63.4 L585.4,62.9 L593.2,68.3 L601.1,73.8 L610.5,75.8 L618.4,73.8M0.0,14.2 L9.0,17.8M0.0,14.2 L9.0,17.8M350.3,53.4 L359.8,50.6 L362.0,44.7 L371.2,44.5 L361.8,41.8 L361.1,36.0 L371.1,35.1 L381.0,34.2M197.9,163.4 L206.6,167.9 L215.3,169.0 L224.3,165.2 L232.0,164.5 L230.2,170.6 L238.8,174.1M44.3,556.1 L44.9,564.9 L46.0,573.2 L51.5,580.7 L56.9,588.2 L49.8,590.5 L39.9,591.8M758.9,323.4 L755.6,330.7 L753.7,336.2M1160.0,539.6 L1160.0,548.5 L1160.0,557.4 L1160.1,566.3 L1160.1,575.3 L1160.1,584.2 L1160.1,593.1M101.1,233.0 L102.8,236.3 L102.8,244.4 L99.8,252.9M824.6,393.6 L825.2,402.5 L820.9,408.3M762.3,360.3 L770.1,354.8 L777.5,357.4M11.6,26.9 L7.7,34.2M11.6,26.9 L7.7,34.2M415.4,183.7 L413.7,176.9 L404.7,173.0 L395.7,169.2 L386.7,165.3 L377.7,161.4M415.4,183.7 L413.7,176.9 L404.7,173.0 L395.7,169.2 L386.7,165.3 L377.7,161.4M109.4,475.3 L99.4,475.4 L91.0,477.9 L84.2,483.2 L74.3,484.8 L65.2,483.5M257.7,55.5 L248.8,59.6 L239.9,63.6 L237.3,69.7 L231.3,69.9M215.4,170.3 L212.7,163.1 L209.3,157.6 L202.6,151.0M471.9,151.3 L465.9,147.9 L458.5,148.6 L454.4,145.3 L462.7,140.8M744.6,459.3 L754.0,457.3 L760.0,463.4 L767.4,465.4M453.5,156.4 L463.3,158.3 L472.6,156.7 L481.6,153.0 L472.9,151.5M103.1,62.7 L109.3,67.9 L119.3,67.5 L127.5,69.8M90.0,478.8 L94.8,486.7 L99.4,494.2 L99.3,502.3M173.6,186.0 L181.9,183.7 L191.2,184.2M459.7,140.2 L469.7,135.2 L479.3,137.5 L485.5,136.2 L491.5,131.4M506.8,135.3 L516.8,135.3 L526.8,135.3 L536.8,135.4 L545.3,137.1M459.8,158.1 L450.1,160.0 L444.3,164.6 L454.3,164.6M302.0,314.3 L304.1,305.6 L310.0,301.2 L310.0,294.6M327.9,61.3 L316.0,61.8 L308.4,65.6 L299.7,63.4 L295.2,66.5M431.4,150.9 L437.3,153.3 L443.3,146.9 L452.4,143.2M666.6,269.2 L675.6,268.3 L682.2,261.6 L690.3,257.9M560.2,247.6 L570.2,246.4 L578.6,250.5 L587.1,255.3 L595.6,260.0 L604.0,264.7 L612.8,265.8 L622.7,267.1M49.0,101.9 L43.2,94.6M67.8,52.5 L77.8,51.3 L87.7,50.2M23.7,4.1 L14.0,1.9M59.3,21.3 L49.4,19.6 L39.6,17.9M59.3,21.3 L49.4,19.6 L39.6,17.9M214.5,143.4 L206.0,138.7 L197.6,136.6 L188.8,137.0M214.5,143.4 L206.0,138.7 L197.6,136.6 L188.8,137.0M214.5,143.4 L206.0,138.7 L197.6,136.6 L188.8,137.0M366.8,60.0 L360.1,64.0 L350.4,63.5 L342.8,65.7 L334.1,61.3M234.2,262.3 L226.0,260.7 L218.7,257.5 L208.7,256.3 L198.8,255.2M221.4,86.8 L230.2,92.9 L237.9,97.1 L235.4,100.8 L242.2,103.8M456.7,164.7 L465.7,164.1 L474.5,167.1 L484.3,165.5M310.0,148.5 L301.5,146.6 L293.7,140.9 L285.1,141.5 L275.7,144.4M813.3,387.8 L822.2,387.4M25.1,56.7 L35.0,57.9M423.7,166.6 L431.5,170.0 L432.8,177.9 L427.8,185.3M130.2,72.1 L140.1,73.3 L150.0,74.6M183.9,134.5 L174.2,132.4 L164.5,130.3 L154.9,129.1M183.9,134.5 L174.2,132.4 L164.5,130.3 L154.9,129.1M57.7,589.4 L66.4,593.7 L75.2,598.1M200.2,148.7 L210.1,150.2 L214.9,147.4M31.7,16.5 L26.7,8.7M30.1,142.6 L20.6,141.7M441.0,158.3 L449.0,153.7M543.4,56.4 L549.7,63.3 L556.7,59.7 L564.5,63.8M214.5,143.4 L223.3,147.6 L231.6,146.9M137.9,219.3 L147.0,215.5 L156.0,211.7 L160.8,205.6 L162.2,196.8 L167.1,190.3M143.0,229.4 L152.2,232.9 L161.4,236.4 L170.6,239.9 L179.8,243.4 L186.4,247.7M460.6,33.9 L470.6,34.4 L474.7,36.4 L484.6,35.4 L484.9,39.8M179.4,418.5 L169.4,418.6 L168.7,412.5 L174.4,405.1M423.7,166.6 L435.4,164.2M62.0,31.5 L59.7,22.9M134.9,618.1 L143.9,614.2 L152.9,610.4M890.9,475.6 L897.2,479.0M411.1,29.9 L421.0,28.5 L430.9,27.2M5.5,54.1 L15.4,55.4 L25.1,56.7M63.8,43.4 L67.5,51.7M197.8,162.9 L207.6,164.2 L211.8,170.6M275.8,58.2 L265.9,58.0M140.4,90.2 L148.2,88.8M224.5,67.9 L220.1,75.9 L215.8,83.9M77.4,40.6 L67.6,42.6M917.1,72.8 L926.7,75.1 L935.2,73.3M140.4,90.2 L133.0,94.3M374.4,160.0 L369.9,152.1M506.9,34.6 L516.5,32.1 L515.2,35.7 L524.1,39.7M442.3,300.3 L431.4,305.8M888.6,316.4 L892.0,319.3M25.2,84.9 L34.4,88.3M229.5,249.2 L220.6,250.6 L215.5,257.3M92.1,60.0 L101.7,62.4M55.7,537.8 L55.6,527.5M43.5,59.0 L53.5,59.9M295.2,66.5 L287.6,60.8M77.4,40.6 L68.0,37.5M93.8,475.5 L102.9,471.8M370.2,129.2 L380.2,128.5 L390.2,127.7 L399.3,127.0 L406.5,133.2 L410.7,138.7M370.2,129.2 L380.2,128.5 L390.2,127.7 L399.3,127.0 L406.5,133.2 L410.7,138.7M200.2,148.7 L190.3,149.8M200.2,148.7 L190.3,149.8M310.0,148.5 L310.0,139.6 L310.0,130.7 L310.0,121.8M25.2,84.9 L16.3,86.7M42.3,531.5 L40.4,540.2M396.0,32.1 L405.9,30.7M396.0,32.1 L405.9,30.7M900.3,473.5 L902.2,474.7M728.8,431.6 L736.0,425.5M503.6,228.8 L496.2,234.8M492.0,131.2 L501.6,133.8M454.7,24.1 L462.7,29.4M67.8,52.5 L58.0,53.9M106.2,310.5 L98.6,316.3 L91.0,322.0 L82.5,320.8M95.3,506.5 L90.2,514.2M90.0,514.3 L89.4,523.2M310.0,115.7 L319.7,113.8 L329.5,111.9 L338.4,111.8M270.0,347.3 L279.5,344.4 L289.0,341.6 L298.5,338.8 L302.5,331.6 L305.7,323.2 L303.3,316.1 L295.0,313.7 L285.1,312.9 L275.1,312.1 L268.9,308.2 L264.6,301.5M437.2,23.4 L447.2,23.8M359.4,56.8 L350.2,53.4M1020.0,176.1 L1030.0,175.4M484.4,40.6 L494.3,40.3 L503.2,36.3M356.4,119.3 L364.2,124.9M410.7,138.7 L419.5,148.5M528.0,41.4 L534.8,48.0 L541.5,54.6M159.9,491.3 L159.9,500.2 L159.9,509.1 L160.0,518.0 L161.7,526.3M169.1,480.9 L162.9,487.9M280.9,368.4 L276.7,360.3 L272.5,352.2 L267.0,347.6 L257.1,348.8 L247.2,350.0 L238.5,351.8 L230.6,356.0 L224.2,362.9 L217.5,362.5 L207.5,361.9 L197.5,361.2 L187.6,360.6 L181.5,365.1M101.0,221.8 L109.1,216.5 L114.6,208.0M174.0,405.4 L166.6,399.4 L159.2,393.4 L151.8,387.4 L142.3,387.5 L133.0,386.9 L127.2,387.0 L119.2,388.7M51.3,103.1 L41.4,102.7 L35.1,108.2M0.0,426.1 L7.6,423.8 L14.2,429.7 L22.4,432.3 L32.4,433.0 L40.7,431.0 L48.4,425.3 L57.6,427.6 L65.2,427.6 L72.0,421.0 L73.1,414.0 L76.7,410.4 L83.0,409.6 L82.6,418.5 L88.0,424.9" fill="none" stroke="#bcb2a4" stroke-width=".65" opacity=".9"/><text x="180.0" y="89.0" fill="#7a746c" font-size="18" font-weight="700" font-family="PingFang SC,Microsoft YaHei,sans-serif">中东</text><text x="830.0" y="71.2" fill="#7a746c" font-size="18" font-weight="700" font-family="PingFang SC,Microsoft YaHei,sans-serif">中国</text><text x="780.0" y="507.5" fill="#7a746c" font-size="18" font-weight="700" font-family="PingFang SC,Microsoft YaHei,sans-serif">东南亚</text><path d="M914.1,161.1 Q589.7,106.1 265.3,291.3" fill="none" stroke="#a43c2d" stroke-width="2.2" stroke-dasharray="8 8" opacity=".72"/><path d="M914.1,161.1 Q531.3,106.1 148.6,326.0" fill="none" stroke="#a43c2d" stroke-width="2.2" stroke-dasharray="8 8" opacity=".72"/><path d="M914.1,161.1 Q830.7,275.5 747.3,459.9" fill="none" stroke="#a43c2d" stroke-width="2.2" stroke-dasharray="8 8" opacity=".72"/><path d="M914.1,161.1 Q833.7,279.7 753.3,468.2" fill="none" stroke="#a43c2d" stroke-width="2.2" stroke-dasharray="8 8" opacity=".72"/><path d="M914.1,161.1 Q908.0,341.2 901.9,591.3" fill="none" stroke="#a43c2d" stroke-width="2.2" stroke-dasharray="8 8" opacity=".72"/><circle cx="265.3" cy="291.3" r="7" fill="#61766a" stroke="#fff8ef" stroke-width="4"/><text x="275.3" y="282.3" fill="#171815" font-size="15" font-weight="700" font-family="PingFang SC,Microsoft YaHei,sans-serif">多哈</text><circle cx="148.6" cy="326.0" r="7" fill="#61766a" stroke="#fff8ef" stroke-width="4"/><text x="158.6" y="345.0" fill="#171815" font-size="15" font-weight="700" font-family="PingFang SC,Microsoft YaHei,sans-serif">麦加</text><circle cx="914.1" cy="161.1" r="7" fill="#a43c2d" stroke="#fff8ef" stroke-width="4"/><text x="924.1" y="149.1" fill="#171815" font-size="15" font-weight="700" font-family="PingFang SC,Microsoft YaHei,sans-serif">北京</text><circle cx="964.7" cy="238.4" r="7" fill="#a43c2d" stroke="#fff8ef" stroke-width="4"/><text x="974.7" y="256.4" fill="#171815" font-size="15" font-weight="700" font-family="PingFang SC,Microsoft YaHei,sans-serif">上海</text><circle cx="951.6" cy="246.9" r="7" fill="#a43c2d" stroke="#fff8ef" stroke-width="4"/><text x="961.6" y="238.9" fill="#171815" font-size="15" font-weight="700" font-family="PingFang SC,Microsoft YaHei,sans-serif">杭州</text><circle cx="790.7" cy="244.2" r="7" fill="#a43c2d" stroke="#fff8ef" stroke-width="4"/><text x="748.7" y="234.2" fill="#171815" font-size="15" font-weight="700" font-family="PingFang SC,Microsoft YaHei,sans-serif">成都</text><circle cx="816.3" cy="279.2" r="7" fill="#a43c2d" stroke="#fff8ef" stroke-width="4"/><text x="774.3" y="299.2" fill="#171815" font-size="15" font-weight="700" font-family="PingFang SC,Microsoft YaHei,sans-serif">贵阳</text><circle cx="747.3" cy="459.9" r="7" fill="#61766a" stroke="#fff8ef" stroke-width="4"/><text x="689.3" y="449.9" fill="#171815" font-size="15" font-weight="700" font-family="PingFang SC,Microsoft YaHei,sans-serif">兰卡威</text><circle cx="753.3" cy="468.2" r="7" fill="#61766a" stroke="#fff8ef" stroke-width="4"/><text x="763.3" y="487.2" fill="#171815" font-size="15" font-weight="700" font-family="PingFang SC,Microsoft YaHei,sans-serif">槟城</text><circle cx="901.9" cy="591.3" r="7" fill="#61766a" stroke="#fff8ef" stroke-width="4"/><text x="911.9" y="609.3" fill="#171815" font-size="15" font-weight="700" font-family="PingFang SC,Microsoft YaHei,sans-serif">巴厘岛</text><g transform="translate(38 602)"><rect width="370" height="32" rx="16" fill="#f4f0e8" stroke="#cfc5b7"/><text x="18" y="21" fill="#68635c" font-size="12" font-family="PingFang SC,Microsoft YaHei,sans-serif">真实地理底图 · 点位以正式协议与实施进度为准</text></g></svg>